<svg width="32" height="22" viewBox="0 0 32 22" fill="none" xmlns="http://www.w3.org/2000/svg">
<path d="M28.5331 2.89737C26.3923 0.72165 23.3433 -0.384465 19.8421 0.121136C16.6796 0.579279 15.1853 0.709786 12.3536 0.185933C9.0208 -0.430096 6.05607 0.559201 3.80526 2.45566C1.81341 4.13308 1.19262 5.60608 0.59134 7.36746C-0.904766 11.7582 0.506203 16.7649 4.05269 19.6488C6.52344 21.6566 9.71076 22.352 12.6923 21.7752C15.0682 21.3171 15.9985 21.1419 19.5991 21.83C22.5239 22.3885 25.6438 21.558 28.0472 19.5612C29.9956 18.0572 31.3276 15.615 31.8012 13.1855C32.5355 9.43367 31.1751 5.58509 28.5314 2.89737H28.5331ZM26.1954 15.1203C24.8332 16.826 22.6755 17.7104 20.5471 17.4366C20.1906 17.39 19.8421 17.3106 19.5024 17.2029C16.3532 16.2027 15.6411 16.1963 12.5176 17.1902C11.6725 17.4594 10.7732 17.5525 9.87749 17.4366C7.78187 17.1664 5.92127 15.7838 5.00339 13.8289C3.01775 9.60616 6.11638 4.54651 10.6659 4.54651C11.2893 4.54651 11.9022 4.6469 12.4866 4.83125C14.3117 5.40895 16.7816 5.72381 19.4856 4.8422C20.0664 4.65237 20.6855 4.54651 21.3355 4.54651C23.7256 4.54651 25.9586 5.98847 26.9989 8.20435C28.0525 10.4494 27.7323 13.1937 26.1954 15.1203Z" fill="#431D05"/>
</svg>
